<?xml version="1.0" encoding="UTF-8"?>
<svg width="22px" height="16px" viewBox="0 0 22 16" version="1.1" xmlns="http://www.w3.org/2000/svg" xmlns:xlink="http://www.w3.org/1999/xlink">
    <!-- Generator: Sketch 46 (44423) - http://www.bohemiancoding.com/sketch -->
    <title>Combined Shape</title>
    <desc>Created with Sketch.</desc>
    <defs></defs>
    <g id="Page-1" stroke="none" stroke-width="1" fill="none" fill-rule="evenodd" fill-opacity="0.75">
        <g id="Details-replace" transform="translate(-392.000000, -439.000000)" fill="#FFFFFF">
            <g id="Panel" transform="translate(360.000000, 162.000000)">
                <g id="Relace-1" transform="translate(24.000000, 214.000000)">
                    <g id="Group" transform="translate(8.000000, 62.000000)">
                        <path d="M12,10.769312 L14.4995642,10.769312 C14.7692032,10.769312 14.8594741,10.5936547 14.6861267,10.3769704 L11.1240983,5.92443488 C11.0565453,5.83999358 10.9444393,5.83876288 10.8759017,5.92443488 L7.31387329,10.3769704 C7.14236212,10.5913594 7.22405275,10.769312 7.50043583,10.769312 L10,10.769312 L10,13.7978014 C10,13.9132156 10.0891309,14 10.1990795,14 L11.8009205,14 C11.9140625,14 12,13.9094726 12,13.7978014 L12,10.769312 Z M5,17 C2.23857625,17 0,14.7614237 0,12 C0,9.58046798 1.71857515,7.56233069 4.00162508,7.09968852 C4.00054449,7.06659179 4,7.03335948 4,7 C4,5.34314575 5.34314575,4 7,4 C7.4650862,4 7.90545376,4.10583308 8.2983335,4.29473006 C8.99550814,2.37293414 10.8374211,1 13,1 C15.7614237,1 18,3.23857625 18,6 C18,6.37003761 17.9598026,6.73068663 17.8835364,7.0778186 C20.2235498,7.49504219 22,9.540065 22,12 C22,14.7614237 19.7614237,17 17,17 L5,17 Z" id="Combined-Shape"></path>
                    </g>
                </g>
            </g>
        </g>
    </g>
</svg>