<?xml version="1.0" encoding="UTF-8"?>
<svg width="44px" height="40px" viewBox="0 0 44 40" version="1.1" xmlns="http://www.w3.org/2000/svg" xmlns:xlink="http://www.w3.org/1999/xlink">
    <!-- Generator: Sketch 46 (44423) - http://www.bohemiancoding.com/sketch -->
    <title>Charlie</title>
    <desc>Created with Sketch.</desc>
    <defs></defs>
    <g id="Page-1" stroke="none" stroke-width="1" fill="none" fill-rule="evenodd">
        <g id="Connect" transform="translate(-554.000000, -192.000000)" fill-rule="nonzero" fill="#FFFFFF">
            <g id="Panel" transform="translate(400.000000, 154.000000)">
                <g id="Charlie" transform="translate(154.000000, 38.000000)">
                    <path d="M43.3420443,0.413204172 C43.1485661,0.152984788 42.8433159,-0.000273642699 42.5190508,1.04784752e-16 C42.3533359,-0.000360625488 42.1901617,0.0407264019 42.0443783,0.119521868 C35.8159529,3.47610087 28.8452778,5.21730202 21.7700545,5.18383416 C14.6959862,5.21673056 7.72655467,3.47554678 1.49914572,0.119521868 C1.35341534,0.0405900081 1.19020585,-0.000505905577 1.02447315,2.14731322e-16 C0.6990066,-0.00135753802 0.392258712,0.152016406 0.19806481,0.413204172 C-0.121770834,0.856227428 -0.0376255856,1.47229086 0.389299799,1.81331748 C3.40267942,4.06466318 6.75154329,5.82782963 10.3130298,7.03813057 C14.0030882,8.28984005 17.8734783,8.92779108 21.7700545,8.92657609 L21.7700545,8.92657609 C25.6666358,8.92785276 29.5370359,8.28990009 33.2270793,7.03813057 C36.7899733,5.82710331 40.1400237,4.06276649 43.1542242,1.80990257 C43.5779614,1.46817617 43.6604541,0.854730312 43.3420443,0.413204172 Z" id="Shape"></path>
                    <path d="M36.3927014,9.84518701 C36.1693185,9.67429431 35.8732317,9.63162679 35.6106868,9.73249497 C33.9288781,10.367094 32.2061171,10.887345 30.454172,11.2896942 C30.1311401,11.3682728 29.8663232,11.5987145 29.7438706,11.907793 C28.5588966,15.148543 25.5367008,18.2356221 22.3676639,21.4695424 C22.2162993,21.6403098 22.0015223,21.7415265 21.7734694,21.7495651 C21.5426286,21.7450488 21.3244003,21.6433743 21.1724452,21.4695424 C18.0034082,18.2356221 14.9777975,15.1587878 13.7962385,11.907793 C13.6737859,11.5987145 13.4089689,11.3682728 13.0859371,11.2896942 C11.3325194,10.8815547 9.60862963,10.3556029 7.9260073,9.71542041 C7.83337973,9.67970573 7.73501347,9.66118973 7.63573991,9.66078185 C7.45933162,9.6600195 7.28762934,9.71765383 7.14740771,9.82469755 C6.92176614,9.99504278 6.80137086,10.2707868 6.82982103,10.5520735 C7.09959896,13.2498528 8.16505104,15.8827488 10.0876457,18.6454114 C11.8941333,21.2407434 14.2538365,23.6448404 16.5315818,25.9703945 C20.7319217,30.2526923 24.6966328,34.2993612 25.0449537,38.9914483 C25.0754562,39.4156135 25.4290283,39.7438239 25.8542875,39.7427286 L30.7922481,39.7427286 C31.0138782,39.7420342 31.225612,39.6508606 31.3784127,39.4903231 C31.5312135,39.3297855 31.6118264,39.1138101 31.6015819,38.8924159 C31.4479109,35.7541131 30.2663519,32.6158103 28.0022662,29.2896875 C27.5275937,28.6067054 27.0153571,27.9237233 26.482631,27.2407412 C26.2992651,27.0088532 26.3168175,26.6768193 26.52361,26.4655565 L27.018772,25.9601497 C29.2862726,23.6482553 31.6425608,21.2441583 33.466123,18.6454114 C35.3887177,15.8827488 36.4541697,13.2635124 36.7239477,10.5657331 C36.747391,10.2869746 36.6293877,10.0150539 36.4097759,9.8417721 L36.3927014,9.84518701 Z" id="Shape"></path>
                    <path d="M16.4769432,29.6209338 C16.3308871,29.4562101 16.1199301,29.3638384 15.8998234,29.3682304 C15.6217191,29.370469 15.3640687,29.5147532 15.2168413,29.7507004 C13.1405757,32.9094926 12.0682938,35.8975393 11.9214526,38.885586 C11.9102165,39.1081487 11.9908587,39.3255623 12.1445134,39.4869644 C12.2981681,39.6483664 12.5113554,39.7395971 12.7342013,39.7393137 L17.6755768,39.7393137 C18.1014184,39.737101 18.4546184,39.4091296 18.4883255,38.9846184 C18.6248235,37.4335486 19.0904993,35.9294156 19.8542897,34.5725541 C20.0653896,34.1776583 20.0266892,33.6959041 19.7552573,33.3397714 C18.7286921,32.0391354 17.6320185,30.7954027 16.4701134,29.614104 L16.4769432,29.6209338 Z" id="Shape"></path>
                    <path d="M21.7768844,12.2595287 C23.3238388,12.2595287 24.2185454,12.1673262 24.536132,12.1673262 C24.9443697,12.1766067 25.2704433,12.5102634 25.2703378,12.9186065 C25.2692757,13.0217886 25.2484083,13.1238067 25.2088694,13.2191186 C24.5357671,14.7918982 23.5612648,16.2176879 22.3403446,17.4160436 C22.1879955,17.5643484 21.9826289,17.6455112 21.7700545,17.6414277 L21.7700545,17.6414277 C21.557411,17.6458956 21.3519012,17.5646762 21.1997645,17.4160436 C19.9731194,16.2137481 18.9949603,14.7818995 18.3209949,13.2020441 C18.2812918,13.1067826 18.2604178,13.0047322 18.2595265,12.9015319 C18.2613776,12.4887097 18.5945824,12.1539834 19.0073919,12.1502516 C19.3215637,12.1502516 20.2196852,12.2424542 21.7632247,12.2424542 L21.7768844,12.2595287 Z" id="Shape"></path>
                </g>
            </g>
        </g>
    </g>
</svg>